<?xml version="1.0" encoding="UTF-8"?>
<!DOCTYPE svg PUBLIC "-//W3C//DTD SVG 1.1//EN" "http://www.w3.org/Graphics/SVG/1.1/DTD/svg11.dtd">
<svg xmlns="http://www.w3.org/2000/svg" version="1.1" width="512px" height="512px" style="shape-rendering:geometricPrecision; text-rendering:geometricPrecision; image-rendering:optimizeQuality; fill-rule:evenodd; clip-rule:evenodd" xmlns:xlink="http://www.w3.org/1999/xlink">
<g><path style="opacity:0.993" fill="#4eb96e" d="M 253.5,-0.5 C 254.833,-0.5 256.167,-0.5 257.5,-0.5C 283.485,18.4524 297.818,44.1191 300.5,76.5C 313.765,65.374 329.099,58.874 346.5,57C 366.79,54.8044 386.79,56.3044 406.5,61.5C 405.151,80.5432 400.151,98.5432 391.5,115.5C 385.972,124.704 379.638,133.371 372.5,141.5C 370.833,143.5 369.167,145.5 367.5,147.5C 362.833,147.5 358.167,147.5 353.5,147.5C 354.15,145.565 354.483,143.565 354.5,141.5C 305.942,122.947 255.942,118.114 204.5,127C 188.131,130.735 172.131,135.569 156.5,141.5C 156.517,143.565 156.85,145.565 157.5,147.5C 152.833,147.5 148.167,147.5 143.5,147.5C 141.833,145.5 140.167,143.5 138.5,141.5C 131.362,133.371 125.028,124.704 119.5,115.5C 110.849,98.5432 105.849,80.5432 104.5,61.5C 134.582,52.6465 164.248,53.8132 193.5,65C 199.85,67.8549 205.517,71.6882 210.5,76.5C 213.181,44.1208 227.515,18.4541 253.5,-0.5 Z"/></g>
<g><path style="opacity:0.952" fill="#4c8056" d="M 119.5,115.5 C 125.028,124.704 131.362,133.371 138.5,141.5C 118.709,133.109 98.0421,129.276 76.5,130C 70.069,126.964 68.2356,122.13 71,115.5C 72.214,113.951 73.714,112.785 75.5,112C 90.3756,110.784 105.042,111.95 119.5,115.5 Z"/></g>
<g><path style="opacity:0.956" fill="#4c8056" d="M 372.5,141.5 C 379.638,133.371 385.972,124.704 391.5,115.5C 405.958,111.95 420.624,110.784 435.5,112C 441.759,115.956 442.926,121.122 439,127.5C 437.581,128.46 436.081,129.293 434.5,130C 412.963,129.274 392.296,133.108 372.5,141.5 Z"/></g>
<g><path style="opacity:1" fill="#25ad5e" d="M 353.5,147.5 C 348.802,163.765 342.635,179.432 335,194.5C 330.642,201.691 324.809,207.358 317.5,211.5C 304.38,203.196 295.546,191.53 291,176.5C 285.26,195.831 275.093,212.331 260.5,226C 257.167,229.333 253.833,229.333 250.5,226C 235.907,212.331 225.74,195.831 220,176.5C 215.454,191.53 206.62,203.196 193.5,211.5C 183.718,204.879 176.218,196.213 171,185.5C 166.196,172.919 161.696,160.252 157.5,147.5C 156.85,145.565 156.517,143.565 156.5,141.5C 172.131,135.569 188.131,130.735 204.5,127C 255.942,118.114 305.942,122.947 354.5,141.5C 354.483,143.565 354.15,145.565 353.5,147.5 Z"/></g>
<g><path style="opacity:0.996" fill="#e54c3c" d="M 143.5,147.5 C 148.167,147.5 152.833,147.5 157.5,147.5C 161.696,160.252 166.196,172.919 171,185.5C 176.218,196.213 183.718,204.879 193.5,211.5C 206.62,203.196 215.454,191.53 220,176.5C 225.74,195.831 235.907,212.331 250.5,226C 253.833,229.333 257.167,229.333 260.5,226C 275.093,212.331 285.26,195.831 291,176.5C 295.546,191.53 304.38,203.196 317.5,211.5C 324.809,207.358 330.642,201.691 335,194.5C 342.635,179.432 348.802,163.765 353.5,147.5C 358.167,147.5 362.833,147.5 367.5,147.5C 418.248,179.017 439.415,224.684 431,284.5C 427.565,312.14 418.565,337.807 404,361.5C 377.504,399.822 351.504,438.488 326,477.5C 312.499,496.536 294.332,507.869 271.5,511.5C 260.833,511.5 250.167,511.5 239.5,511.5C 216.668,507.869 198.501,496.536 185,477.5C 159.496,438.488 133.496,399.822 107,361.5C 78.3572,314.353 71.6905,264.353 87,211.5C 98.611,183.726 117.444,162.393 143.5,147.5 Z"/></g>
<g><path style="opacity:1" fill="#f2d15a" d="M 155.5,255.5 C 160.739,254.959 164.572,256.959 167,261.5C 167.667,266.167 167.667,270.833 167,275.5C 164.549,281.089 160.383,282.922 154.5,281C 152.185,279.891 150.685,278.057 150,275.5C 149.333,270.833 149.333,266.167 150,261.5C 151.36,258.977 153.193,256.977 155.5,255.5 Z"/></g>
<g><path style="opacity:1" fill="#f2d15a" d="M 349.5,255.5 C 354.814,254.74 358.647,256.74 361,261.5C 361.667,266.167 361.667,270.833 361,275.5C 358.646,281.095 354.479,282.928 348.5,281C 346.622,279.457 345.122,277.624 344,275.5C 343.333,270.833 343.333,266.167 344,261.5C 345.36,258.977 347.193,256.977 349.5,255.5 Z"/></g>
<g><path style="opacity:1" fill="#f2d059" d="M 252.5,290.5 C 257.55,290.274 261.383,292.274 264,296.5C 264.851,302.253 264.517,307.92 263,313.5C 256.208,319.541 250.875,318.541 247,310.5C 246.333,305.833 246.333,301.167 247,296.5C 248.36,293.977 250.193,291.977 252.5,290.5 Z"/></g>
<g><path style="opacity:1" fill="#f2d059" d="M 191.5,343.5 C 196.421,343.043 199.921,345.043 202,349.5C 202.851,355.253 202.517,360.92 201,366.5C 194.437,372.321 189.104,371.321 185,363.5C 183.89,357.574 184.556,351.908 187,346.5C 188.652,345.601 190.152,344.601 191.5,343.5 Z"/></g>
<g><path style="opacity:1" fill="#f2d059" d="M 314.5,343.5 C 320.031,343.177 323.864,345.51 326,350.5C 327.245,356.706 326.412,362.539 323.5,368C 316.794,372.264 311.961,370.764 309,363.5C 308.333,358.833 308.333,354.167 309,349.5C 310.36,346.977 312.193,344.977 314.5,343.5 Z"/></g>
<g><path style="opacity:1" fill="#f2d15a" d="M 252.5,405.5 C 257.814,404.74 261.647,406.74 264,411.5C 264.667,416.167 264.667,420.833 264,425.5C 261.646,431.095 257.479,432.928 251.5,431C 249.185,429.891 247.685,428.057 247,425.5C 246.333,420.833 246.333,416.167 247,411.5C 248.36,408.977 250.193,406.977 252.5,405.5 Z"/></g>
</svg>
