<?xml version="1.0" standalone="no"?>
<!DOCTYPE svg PUBLIC "-//W3C//DTD SVG 20010904//EN"
 "http://www.w3.org/TR/2001/REC-SVG-20010904/DTD/svg10.dtd">
<svg version="1.0" xmlns="http://www.w3.org/2000/svg"
 width="512.000000pt" height="512.000000pt" viewBox="0 0 512.000000 512.000000"
 preserveAspectRatio="xMidYMid meet">
<metadata>
Created by potrace 1.14, written by Peter Selinger 2001-2017
</metadata>
<g transform="translate(0.000000,512.000000) scale(0.100000,-0.100000)"
fill="#000000" stroke="none">
<path d="M2525 5097 c-123 -88 -234 -221 -305 -364 -50 -102 -75 -188 -91
-306 l-13 -96 -37 33 c-92 84 -235 144 -419 175 -67 12 -293 12 -375 1 -231
-32 -220 -28 -221 -73 -1 -20 2 -58 7 -84 4 -27 11 -65 14 -86 10 -60 61 -210
94 -278 17 -35 29 -64 28 -65 -1 -1 -29 4 -62 11 -132 31 -342 41 -388 18 -57
-29 -65 -115 -13 -147 13 -9 69 -16 151 -20 142 -6 165 -9 270 -36 120 -31
229 -78 259 -111 15 -17 26 -32 24 -34 -2 -1 -46 -31 -98 -66 -176 -116 -356
-321 -435 -494 -125 -274 -152 -579 -84 -935 58 -302 179 -548 474 -972 107
-153 161 -234 359 -537 145 -221 194 -287 286 -385 103 -109 181 -161 305
-204 85 -29 158 -37 325 -37 175 1 266 20 382 79 175 91 289 224 585 686 73
113 159 243 192 290 219 312 325 479 403 640 42 86 111 270 122 323 48 229 59
321 60 492 1 444 -194 814 -557 1056 -51 34 -94 63 -96 65 -2 2 10 16 26 33
38 37 135 78 278 117 49 14 208 32 283 32 50 1 101 6 113 12 30 17 49 67 37
101 -18 53 -40 62 -141 63 -105 0 -206 -9 -275 -25 -76 -17 -83 -18 -78 -11
66 114 145 397 142 508 -1 42 -2 43 -126 60 -25 3 -65 10 -90 14 -50 10 -359
6 -405 -4 -105 -23 -137 -32 -197 -56 -84 -34 -150 -73 -198 -116 l-37 -34 -7
63 c-13 123 -40 223 -88 327 -26 58 -100 171 -137 213 -16 17 -38 41 -48 52
-26 29 -124 110 -148 123 -16 8 -27 6 -50 -11z"/>
</g>
</svg>
